<svg xmlns="http://www.w3.org/2000/svg" xmlns:xlink="http://www.w3.org/1999/xlink" contentStyleType="text/css" data-diagram-type="CLASS" height="634px" preserveAspectRatio="none" style="width:1635px;height:634px;background:#1B1B1B;" version="1.1" viewBox="0 0 1635 634" width="1635px" zoomAndPan="magnify"><defs/><g><rect fill="#1B1B1B" height="634" style="stroke:none;stroke-width:1;" width="1635" x="0" y="0"/><!--cluster Core--><g class="cluster" data-entity="Core" data-source-line="3" data-uid="ent0002" id="cluster_Core"><path d="M1015.14,267 L1052.432,267 A3.75,3.75 0 0 1 1054.932,269.5 L1061.932,289.2969 L1421.64,289.2969 A2.5,2.5 0 0 1 1424.14,291.7969 L1424.14,624.5 A2.5,2.5 0 0 1 1421.64,627 L1015.14,627 A2.5,2.5 0 0 1 1012.64,624.5 L1012.64,269.5 A2.5,2.5 0 0 1 1015.14,267" fill="none" style="stroke:#FFFFFF;stroke-width:1.5;"/><line style="stroke:#FFFFFF;stroke-width:1.5;" x1="1012.64" x2="1061.932" y1="289.2969" y2="289.2969"/><text fill="#FFFFFF" font-family="sans-serif" font-size="14" font-weight="bold" lengthAdjust="spacing" textLength="36.292" x="1016.64" y="281.9951">Core</text></g><!--cluster Application--><g class="cluster" data-entity="Application" data-source-line="15" data-uid="ent0006" id="cluster_Application"><path d="M547.88,388 L638.1779,388 A3.75,3.75 0 0 1 640.6779,390.5 L647.6779,410.2969 L954.38,410.2969 A2.5,2.5 0 0 1 956.88,412.7969 L956.88,516.5 A2.5,2.5 0 0 1 954.38,519 L547.88,519 A2.5,2.5 0 0 1 545.38,516.5 L545.38,390.5 A2.5,2.5 0 0 1 547.88,388" fill="none" style="stroke:#FFFFFF;stroke-width:1.5;"/><line style="stroke:#FFFFFF;stroke-width:1.5;" x1="545.38" x2="647.6779" y1="410.2969" y2="410.2969"/><text fill="#FFFFFF" font-family="sans-serif" font-size="14" font-weight="bold" lengthAdjust="spacing" textLength="89.2979" x="549.38" y="402.9951">Application</text></g><!--cluster Adapters--><g class="cluster" data-entity="Adapters" data-source-line="22" data-uid="ent0008" id="cluster_Adapters"><path d="M1015.14,128 L1087.89,128 A3.75,3.75 0 0 1 1090.39,130.5 L1097.39,150.2969 L1421.64,150.2969 A2.5,2.5 0 0 1 1424.14,152.7969 L1424.14,240.5 A2.5,2.5 0 0 1 1421.64,243 L1015.14,243 A2.5,2.5 0 0 1 1012.64,240.5 L1012.64,130.5 A2.5,2.5 0 0 1 1015.14,128" fill="none" style="stroke:#FFFFFF;stroke-width:1.5;"/><line style="stroke:#FFFFFF;stroke-width:1.5;" x1="1012.64" x2="1097.39" y1="150.2969" y2="150.2969"/><text fill="#FFFFFF" font-family="sans-serif" font-size="14" font-weight="bold" lengthAdjust="spacing" textLength="71.75" x="1016.64" y="142.9951">Adapters</text></g><!--cluster Infra--><g class="cluster" data-entity="Infra" data-source-line="28" data-uid="ent0010" id="cluster_Infra"><path d="M520.11,6 L558.7282,6 A3.75,3.75 0 0 1 561.2282,8.5 L568.2282,28.2969 L982.14,28.2969 A2.5,2.5 0 0 1 984.64,30.7969 L984.64,248.5 A2.5,2.5 0 0 1 982.14,251 L520.11,251 A2.5,2.5 0 0 1 517.61,248.5 L517.61,8.5 A2.5,2.5 0 0 1 520.11,6" fill="none" style="stroke:#FFFFFF;stroke-width:1.5;"/><line style="stroke:#FFFFFF;stroke-width:1.5;" x1="517.61" x2="568.2282" y1="28.2969" y2="28.2969"/><text fill="#FFFFFF" font-family="sans-serif" font-size="14" font-weight="bold" lengthAdjust="spacing" textLength="37.6182" x="521.61" y="20.9951">Infra</text></g><!--cluster Controllers--><g class="cluster" data-entity="Controllers" data-source-line="38" data-uid="ent0013" id="cluster_Controllers"><path d="M8.5,388 L96.9043,388 A3.75,3.75 0 0 1 99.4043,390.5 L106.4043,410.2969 L487.11,410.2969 A2.5,2.5 0 0 1 489.61,412.7969 L489.61,516.5 A2.5,2.5 0 0 1 487.11,519 L8.5,519 A2.5,2.5 0 0 1 6,516.5 L6,390.5 A2.5,2.5 0 0 1 8.5,388" fill="none" style="stroke:#FFFFFF;stroke-width:1.5;"/><line style="stroke:#FFFFFF;stroke-width:1.5;" x1="6" x2="106.4043" y1="410.2969" y2="410.2969"/><text fill="#FFFFFF" font-family="sans-serif" font-size="14" font-weight="bold" lengthAdjust="spacing" textLength="87.4043" x="10" y="402.9951">Controllers</text></g><!--class EmailSenderUseCase--><g class="entity" data-entity="EmailSenderUseCase" data-source-line="4" data-uid="ent0003" id="entity_EmailSenderUseCase"><rect fill="#313139" height="64.2969" rx="2.5" ry="2.5" style="stroke:#E7E7E7;stroke-width:0.5;" width="379.5" x="1028.64" y="546.85"/><ellipse cx="1139.6966" cy="562.85" fill="#352866" rx="11" ry="11" style="stroke:#E7E7E7;stroke-width:1;"/><path d="M1135.6185,558.6156 L1135.6185,556.4594 L1143.0091,556.4594 L1143.0091,558.6156 L1140.5404,558.6156 L1140.5404,566.6938 L1143.0091,566.6938 L1143.0091,568.85 L1135.6185,568.85 L1135.6185,566.6938 L1138.0873,566.6938 L1138.0873,558.6156 L1135.6185,558.6156 Z " fill="#FFFFFF"/><text fill="#FFFFFF" font-family="sans-serif" font-size="14" font-style="italic" lengthAdjust="spacing" textLength="148.8867" x="1160.1966" y="567.6967">EmailSenderUseCase</text><line style="stroke:#E7E7E7;stroke-width:0.5;" x1="1029.64" x2="1407.14" y1="578.85" y2="578.85"/><line style="stroke:#E7E7E7;stroke-width:0.5;" x1="1029.64" x2="1407.14" y1="586.85" y2="586.85"/><ellipse cx="1039.64" cy="600.4984" fill="#84BE84" rx="3" ry="3" style="stroke:#038048;stroke-width:1;"/><text fill="#FFFFFF" font-family="sans-serif" font-size="14" lengthAdjust="spacing" textLength="353.5" x="1048.64" y="603.8451">sendEmail(to: String, subject: String, body: String)</text></g><!--class EmailRequest--><g class="entity" data-entity="EmailRequest" data-source-line="7" data-uid="ent0004" id="entity_EmailRequest"><rect fill="#313139" height="96.8906" rx="2.5" ry="2.5" style="stroke:#E7E7E7;stroke-width:0.5;" width="128.3389" x="1154.22" y="399.55"/><ellipse cx="1169.22" cy="415.55" fill="#2E5233" rx="11" ry="11" style="stroke:#E7E7E7;stroke-width:1;"/><path d="M1172.1888,421.1906 Q1171.6106,421.4875 1170.97,421.6281 Q1170.3294,421.7844 1169.6263,421.7844 Q1167.1263,421.7844 1165.7981,420.1438 Q1164.4856,418.4875 1164.4856,415.3625 Q1164.4856,412.2375 1165.7981,410.5813 Q1167.1263,408.925 1169.6263,408.925 Q1170.3294,408.925 1170.97,409.0813 Q1171.6263,409.2375 1172.1888,409.5344 L1172.1888,412.2531 Q1171.5638,411.675 1170.97,411.4094 Q1170.3763,411.1281 1169.7513,411.1281 Q1168.4075,411.1281 1167.72,412.2063 Q1167.0325,413.2688 1167.0325,415.3625 Q1167.0325,417.4563 1167.72,418.5344 Q1168.4075,419.5969 1169.7513,419.5969 Q1170.3763,419.5969 1170.97,419.3313 Q1171.5638,419.05 1172.1888,418.4719 L1172.1888,421.1906 Z " fill="#FFFFFF"/><text fill="#FFFFFF" font-family="sans-serif" font-size="14" lengthAdjust="spacing" textLength="96.3389" x="1183.22" y="420.3967">EmailRequest</text><line style="stroke:#E7E7E7;stroke-width:0.5;" x1="1155.22" x2="1281.5589" y1="431.55" y2="431.55"/><ellipse cx="1165.22" cy="445.1984" fill="none" rx="3" ry="3" style="stroke:#038048;stroke-width:1;"/><text fill="#FFFFFF" font-family="sans-serif" font-size="14" lengthAdjust="spacing" textLength="65.0029" x="1174.22" y="448.5451">to: String</text><ellipse cx="1165.22" cy="461.4953" fill="none" rx="3" ry="3" style="stroke:#038048;stroke-width:1;"/><text fill="#FFFFFF" font-family="sans-serif" font-size="14" lengthAdjust="spacing" textLength="101.6914" x="1174.22" y="464.842">subject: String</text><ellipse cx="1165.22" cy="477.7922" fill="none" rx="3" ry="3" style="stroke:#038048;stroke-width:1;"/><text fill="#FFFFFF" font-family="sans-serif" font-size="14" lengthAdjust="spacing" textLength="85.5723" x="1174.22" y="481.1389">body: String</text><line style="stroke:#E7E7E7;stroke-width:0.5;" x1="1155.22" x2="1281.5589" y1="488.4406" y2="488.4406"/></g><!--class EmailServiceException--><g class="entity" data-entity="EmailServiceException" data-source-line="12" data-uid="ent0005" id="entity_EmailServiceException"><rect fill="#313139" height="48" rx="2.5" ry="2.5" style="stroke:#E7E7E7;stroke-width:0.5;" width="191.7285" x="1122.53" y="302"/><ellipse cx="1137.53" cy="318" fill="#2E5233" rx="11" ry="11" style="stroke:#E7E7E7;stroke-width:1;"/><path d="M1140.4988,323.6406 Q1139.9206,323.9375 1139.28,324.0781 Q1138.6394,324.2344 1137.9363,324.2344 Q1135.4363,324.2344 1134.1081,322.5938 Q1132.7956,320.9375 1132.7956,317.8125 Q1132.7956,314.6875 1134.1081,313.0313 Q1135.4363,311.375 1137.9363,311.375 Q1138.6394,311.375 1139.28,311.5313 Q1139.9363,311.6875 1140.4988,311.9844 L1140.4988,314.7031 Q1139.8738,314.125 1139.28,313.8594 Q1138.6863,313.5781 1138.0613,313.5781 Q1136.7175,313.5781 1136.03,314.6563 Q1135.3425,315.7188 1135.3425,317.8125 Q1135.3425,319.9063 1136.03,320.9844 Q1136.7175,322.0469 1138.0613,322.0469 Q1138.6863,322.0469 1139.28,321.7813 Q1139.8738,321.5 1140.4988,320.9219 L1140.4988,323.6406 Z " fill="#FFFFFF"/><text fill="#FFFFFF" font-family="sans-serif" font-size="14" lengthAdjust="spacing" textLength="159.7285" x="1151.53" y="322.8467">EmailServiceException</text><line style="stroke:#E7E7E7;stroke-width:0.5;" x1="1123.53" x2="1313.2585" y1="334" y2="334"/><line style="stroke:#E7E7E7;stroke-width:0.5;" x1="1123.53" x2="1313.2585" y1="342" y2="342"/></g><!--class EmailSenderService--><g class="entity" data-entity="EmailSenderService" data-source-line="16" data-uid="ent0007" id="entity_EmailSenderService"><rect fill="#313139" height="80.5938" rx="2.5" ry="2.5" style="stroke:#E7E7E7;stroke-width:0.5;" width="379.5" x="561.38" y="422.7"/><ellipse cx="676.774" cy="438.7" fill="#2E5233" rx="11" ry="11" style="stroke:#E7E7E7;stroke-width:1;"/><path d="M679.7428,444.3406 Q679.1647,444.6375 678.524,444.7781 Q677.8834,444.9344 677.1803,444.9344 Q674.6803,444.9344 673.3522,443.2938 Q672.0397,441.6375 672.0397,438.5125 Q672.0397,435.3875 673.3522,433.7313 Q674.6803,432.075 677.1803,432.075 Q677.8834,432.075 678.524,432.2313 Q679.1803,432.3875 679.7428,432.6844 L679.7428,435.4031 Q679.1178,434.825 678.524,434.5594 Q677.9303,434.2781 677.3053,434.2781 Q675.9615,434.2781 675.274,435.3563 Q674.5865,436.4188 674.5865,438.5125 Q674.5865,440.6063 675.274,441.6844 Q675.9615,442.7469 677.3053,442.7469 Q677.9303,442.7469 678.524,442.4813 Q679.1178,442.2 679.7428,441.6219 L679.7428,444.3406 Z " fill="#FFFFFF"/><text fill="#FFFFFF" font-family="sans-serif" font-size="14" lengthAdjust="spacing" textLength="140.2119" x="697.274" y="443.5467">EmailSenderService</text><line style="stroke:#E7E7E7;stroke-width:0.5;" x1="562.38" x2="939.88" y1="454.7" y2="454.7"/><rect fill="none" height="6" style="stroke:#C82930;stroke-width:1;" width="6" x="569.38" y="465.3484"/><text fill="#FFFFFF" font-family="sans-serif" font-size="14" lengthAdjust="spacing" textLength="309.5654" x="581.38" y="471.6951">emailSenderGateway: EmailSenderGateway</text><line style="stroke:#E7E7E7;stroke-width:0.5;" x1="562.38" x2="939.88" y1="478.9969" y2="478.9969"/><ellipse cx="572.38" cy="492.6453" fill="#84BE84" rx="3" ry="3" style="stroke:#038048;stroke-width:1;"/><text fill="#FFFFFF" font-family="sans-serif" font-size="14" lengthAdjust="spacing" textLength="353.5" x="581.38" y="495.992">sendEmail(to: String, subject: String, body: String)</text></g><!--class EmailSenderGateway--><g class="entity" data-entity="EmailSenderGateway" data-source-line="23" data-uid="ent0009" id="entity_EmailSenderGateway"><rect fill="#313139" height="64.2969" rx="2.5" ry="2.5" style="stroke:#E7E7E7;stroke-width:0.5;" width="379.5" x="1028.64" y="162.85"/><ellipse cx="1138.9823" cy="178.85" fill="#352866" rx="11" ry="11" style="stroke:#E7E7E7;stroke-width:1;"/><path d="M1134.9042,174.6156 L1134.9042,172.4594 L1142.2948,172.4594 L1142.2948,174.6156 L1139.826,174.6156 L1139.826,182.6938 L1142.2948,182.6938 L1142.2948,184.85 L1134.9042,184.85 L1134.9042,182.6938 L1137.3729,182.6938 L1137.3729,174.6156 L1134.9042,174.6156 Z " fill="#FFFFFF"/><text fill="#FFFFFF" font-family="sans-serif" font-size="14" font-style="italic" lengthAdjust="spacing" textLength="150.3154" x="1159.4823" y="183.6967">EmailSenderGateway</text><line style="stroke:#E7E7E7;stroke-width:0.5;" x1="1029.64" x2="1407.14" y1="194.85" y2="194.85"/><line style="stroke:#E7E7E7;stroke-width:0.5;" x1="1029.64" x2="1407.14" y1="202.85" y2="202.85"/><ellipse cx="1039.64" cy="216.4984" fill="#84BE84" rx="3" ry="3" style="stroke:#038048;stroke-width:1;"/><text fill="#FFFFFF" font-family="sans-serif" font-size="14" lengthAdjust="spacing" textLength="353.5" x="1048.64" y="219.8451">sendEmail(to: String, subject: String, body: String)</text></g><!--class AwsSesEmailSender--><g class="entity" data-entity="AwsSesEmailSender" data-source-line="29" data-uid="ent0011" id="entity_AwsSesEmailSender"><rect fill="#313139" height="80.5938" rx="2.5" ry="2.5" style="stroke:#E7E7E7;stroke-width:0.5;" width="424.1045" x="539.07" y="154.7"/><ellipse cx="676.0793" cy="170.7" fill="#2E5233" rx="11" ry="11" style="stroke:#E7E7E7;stroke-width:1;"/><path d="M679.048,176.3406 Q678.4699,176.6375 677.8293,176.7781 Q677.1887,176.9344 676.4855,176.9344 Q673.9855,176.9344 672.6574,175.2938 Q671.3449,173.6375 671.3449,170.5125 Q671.3449,167.3875 672.6574,165.7313 Q673.9855,164.075 676.4855,164.075 Q677.1887,164.075 677.8293,164.2313 Q678.4855,164.3875 679.048,164.6844 L679.048,167.4031 Q678.423,166.825 677.8293,166.5594 Q677.2355,166.2781 676.6105,166.2781 Q675.2668,166.2781 674.5793,167.3563 Q673.8918,168.4188 673.8918,170.5125 Q673.8918,172.6063 674.5793,173.6844 Q675.2668,174.7469 676.6105,174.7469 Q677.2355,174.7469 677.8293,174.4813 Q678.423,174.2 679.048,173.6219 L679.048,176.3406 Z " fill="#FFFFFF"/><text fill="#FFFFFF" font-family="sans-serif" font-size="14" lengthAdjust="spacing" textLength="141.5859" x="696.5793" y="175.5467">AwsSesEmailSender</text><line style="stroke:#E7E7E7;stroke-width:0.5;" x1="540.07" x2="962.1745" y1="186.7" y2="186.7"/><rect fill="none" height="6" style="stroke:#C82930;stroke-width:1;" width="6" x="547.07" y="197.3484"/><text fill="#FFFFFF" font-family="sans-serif" font-size="14" lengthAdjust="spacing" textLength="398.1045" x="559.07" y="203.6951">amazonSimpleEmailService: AmazonSimpleEmailService</text><line style="stroke:#E7E7E7;stroke-width:0.5;" x1="540.07" x2="962.1745" y1="210.9969" y2="210.9969"/><ellipse cx="550.07" cy="224.6453" fill="#84BE84" rx="3" ry="3" style="stroke:#038048;stroke-width:1;"/><text fill="#FFFFFF" font-family="sans-serif" font-size="14" lengthAdjust="spacing" textLength="353.5" x="559.07" y="227.992">sendEmail(to: String, subject: String, body: String)</text></g><!--class AwsSesConfig--><g class="entity" data-entity="AwsSesConfig" data-source-line="33" data-uid="ent0012" id="entity_AwsSesConfig"><rect fill="#313139" height="64.2969" rx="2.5" ry="2.5" style="stroke:#E7E7E7;stroke-width:0.5;" width="435.0283" x="533.61" y="40.85"/><ellipse cx="697.8571" cy="56.85" fill="#2E5233" rx="11" ry="11" style="stroke:#E7E7E7;stroke-width:1;"/><path d="M700.8258,62.4906 Q700.2477,62.7875 699.6071,62.9281 Q698.9664,63.0844 698.2633,63.0844 Q695.7633,63.0844 694.4352,61.4438 Q693.1227,59.7875 693.1227,56.6625 Q693.1227,53.5375 694.4352,51.8813 Q695.7633,50.225 698.2633,50.225 Q698.9664,50.225 699.6071,50.3813 Q700.2633,50.5375 700.8258,50.8344 L700.8258,53.5531 Q700.2008,52.975 699.6071,52.7094 Q699.0133,52.4281 698.3883,52.4281 Q697.0446,52.4281 696.3571,53.5063 Q695.6696,54.5688 695.6696,56.6625 Q695.6696,58.7563 696.3571,59.8344 Q697.0446,60.8969 698.3883,60.8969 Q699.0133,60.8969 699.6071,60.6313 Q700.2008,60.35 700.8258,59.7719 L700.8258,62.4906 Z " fill="#FFFFFF"/><text fill="#FFFFFF" font-family="sans-serif" font-size="14" lengthAdjust="spacing" textLength="98.0342" x="718.3571" y="61.6967">AwsSesConfig</text><line style="stroke:#E7E7E7;stroke-width:0.5;" x1="534.61" x2="967.6383" y1="72.85" y2="72.85"/><line style="stroke:#E7E7E7;stroke-width:0.5;" x1="534.61" x2="967.6383" y1="80.85" y2="80.85"/><ellipse cx="544.61" cy="94.4984" fill="#84BE84" rx="3" ry="3" style="stroke:#038048;stroke-width:1;"/><text fill="#FFFFFF" font-family="sans-serif" font-size="14" lengthAdjust="spacing" textLength="409.0283" x="553.61" y="97.8451">amazonSimpleEmailService(): AmazonSimpleEmailService</text></g><!--class EmailSenderController--><g class="entity" data-entity="EmailSenderController" data-source-line="39" data-uid="ent0014" id="entity_EmailSenderController"><rect fill="#313139" height="80.5938" rx="2.5" ry="2.5" style="stroke:#E7E7E7;stroke-width:0.5;" width="451.6123" x="22" y="422.7"/><ellipse cx="164.7344" cy="438.7" fill="#2E5233" rx="11" ry="11" style="stroke:#E7E7E7;stroke-width:1;"/><path d="M167.7031,444.3406 Q167.125,444.6375 166.4844,444.7781 Q165.8438,444.9344 165.1406,444.9344 Q162.6406,444.9344 161.3125,443.2938 Q160,441.6375 160,438.5125 Q160,435.3875 161.3125,433.7313 Q162.6406,432.075 165.1406,432.075 Q165.8438,432.075 166.4844,432.2313 Q167.1406,432.3875 167.7031,432.6844 L167.7031,435.4031 Q167.0781,434.825 166.4844,434.5594 Q165.8906,434.2781 165.2656,434.2781 Q163.9219,434.2781 163.2344,435.3563 Q162.5469,436.4188 162.5469,438.5125 Q162.5469,440.6063 163.2344,441.6844 Q163.9219,442.7469 165.2656,442.7469 Q165.8906,442.7469 166.4844,442.4813 Q167.0781,442.2 167.7031,441.6219 L167.7031,444.3406 Z " fill="#FFFFFF"/><text fill="#FFFFFF" font-family="sans-serif" font-size="14" lengthAdjust="spacing" textLength="157.6436" x="185.2344" y="443.5467">EmailSenderController</text><line style="stroke:#E7E7E7;stroke-width:0.5;" x1="23" x2="472.6123" y1="454.7" y2="454.7"/><rect fill="none" height="6" style="stroke:#C82930;stroke-width:1;" width="6" x="30" y="465.3484"/><text fill="#FFFFFF" font-family="sans-serif" font-size="14" lengthAdjust="spacing" textLength="289.3584" x="42" y="471.6951">emailSenderService: EmailSenderService</text><line style="stroke:#E7E7E7;stroke-width:0.5;" x1="23" x2="472.6123" y1="478.9969" y2="478.9969"/><ellipse cx="33" cy="492.6453" fill="#84BE84" rx="3" ry="3" style="stroke:#038048;stroke-width:1;"/><text fill="#FFFFFF" font-family="sans-serif" font-size="14" lengthAdjust="spacing" textLength="425.6123" x="42" y="495.992">sendEmail(request: EmailRequest): ResponseEntity&lt;String&gt;</text></g><!--class RuntimeException--><g class="entity" data-entity="RuntimeException" data-source-line="49" data-uid="ent0019" id="entity_RuntimeException"><rect fill="#313139" height="48" rx="2.5" ry="2.5" style="stroke:#E7E7E7;stroke-width:0.5;" width="160.249" x="1468.14" y="302"/><ellipse cx="1483.14" cy="318" fill="#2E5233" rx="11" ry="11" style="stroke:#E7E7E7;stroke-width:1;"/><path d="M1486.1088,323.6406 Q1485.5306,323.9375 1484.89,324.0781 Q1484.2494,324.2344 1483.5463,324.2344 Q1481.0463,324.2344 1479.7181,322.5938 Q1478.4056,320.9375 1478.4056,317.8125 Q1478.4056,314.6875 1479.7181,313.0313 Q1481.0463,311.375 1483.5463,311.375 Q1484.2494,311.375 1484.89,311.5313 Q1485.5463,311.6875 1486.1088,311.9844 L1486.1088,314.7031 Q1485.4838,314.125 1484.89,313.8594 Q1484.2963,313.5781 1483.6713,313.5781 Q1482.3275,313.5781 1481.64,314.6563 Q1480.9525,315.7188 1480.9525,317.8125 Q1480.9525,319.9063 1481.64,320.9844 Q1482.3275,322.0469 1483.6713,322.0469 Q1484.2963,322.0469 1484.89,321.7813 Q1485.4838,321.5 1486.1088,320.9219 L1486.1088,323.6406 Z " fill="#FFFFFF"/><text fill="#FFFFFF" font-family="sans-serif" font-size="14" lengthAdjust="spacing" textLength="128.249" x="1497.14" y="322.8467">RuntimeException</text><line style="stroke:#E7E7E7;stroke-width:0.5;" x1="1469.14" x2="1627.389" y1="334" y2="334"/><line style="stroke:#E7E7E7;stroke-width:0.5;" x1="1469.14" x2="1627.389" y1="342" y2="342"/></g><!--link EmailSenderService to EmailSenderUseCase--><g class="link" data-entity-1="EmailSenderService" data-entity-2="EmailSenderUseCase" data-source-line="45" data-uid="lnk15" id="link_EmailSenderService_EmailSenderUseCase"><path codeLine="45" d="M915.51,503.73 C971.54,517.7 1016.0045,528.796 1069.1145,542.036" fill="none" id="EmailSenderService-to-EmailSenderUseCase" style="stroke:#E7E7E7;stroke-width:1;stroke-dasharray:7.0,7.0;"/><polygon fill="none" points="1086.58,546.39,1070.5659,536.2141,1067.6632,547.8578,1086.58,546.39" style="stroke:#E7E7E7;stroke-width:1;"/></g><!--link AwsSesEmailSender to EmailSenderGateway--><g class="link" data-entity-1="AwsSesEmailSender" data-entity-2="EmailSenderGateway" data-source-line="46" data-uid="lnk16" id="link_AwsSesEmailSender_EmailSenderGateway"><path codeLine="46" d="M963.66,195 C985.26,195 989.11,195 1010.45,195" fill="none" id="AwsSesEmailSender-to-EmailSenderGateway" style="stroke:#E7E7E7;stroke-width:1;stroke-dasharray:7.0,7.0;"/><polygon fill="none" points="1028.45,195,1010.45,189,1010.45,201,1028.45,195" style="stroke:#E7E7E7;stroke-width:1;"/></g><!--link EmailSenderService to EmailSenderGateway--><g class="link" data-entity-1="EmailSenderService" data-entity-2="EmailSenderGateway" data-source-line="47" data-uid="lnk17" id="link_EmailSenderService_EmailSenderGateway"><path codeLine="47" d="M801.55,422.23 C850.85,382.89 929.82,323.36 1004.64,282 C1042.44,261.1 1080.7241,244.4848 1118.7741,229.7648" fill="none" id="EmailSenderService-to-EmailSenderGateway" style="stroke:#E7E7E7;stroke-width:1;"/><polygon fill="#E7E7E7" points="1124.37,227.6,1114.533,227.1166,1119.7068,229.404,1117.4194,234.5778,1124.37,227.6" style="stroke:#E7E7E7;stroke-width:1;"/></g><!--link EmailSenderController to EmailSenderService--><g class="link" data-entity-1="EmailSenderController" data-entity-2="EmailSenderService" data-source-line="48" data-uid="lnk18" id="link_EmailSenderController_EmailSenderService"><path codeLine="48" d="M473.8,463 C502.96,463 526.58,463 555.07,463" fill="none" id="EmailSenderController-to-EmailSenderService" style="stroke:#E7E7E7;stroke-width:1;"/><polygon fill="#E7E7E7" points="561.07,463,552.07,459,556.07,463,552.07,467,561.07,463" style="stroke:#E7E7E7;stroke-width:1;"/></g><!--link EmailServiceException to RuntimeException--><g class="link" data-entity-1="EmailServiceException" data-entity-2="RuntimeException" data-source-line="49" data-uid="lnk20" id="link_EmailServiceException_RuntimeException"><path codeLine="49" d="M1314.67,326 C1363.26,326 1403.67,326 1449.81,326" fill="none" id="EmailServiceException-to-RuntimeException" style="stroke:#E7E7E7;stroke-width:1;"/><polygon fill="none" points="1467.81,326,1449.81,320,1449.81,332,1467.81,326" style="stroke:#E7E7E7;stroke-width:1;"/></g><!--SRC=[hLFBRi8m4BpdArQSG2sebrvGXOHGLFLAr0zOd4rgS6pNDgMqvTzho9i4Ug277B9UpyxCZWKb3fm2mzCt1p4tn1nNCh0RBZKQp42gc2nfU7m8DB8DfWI3XJ8qWEy0W4j79a5646R8HKGo9lDgQO6MJWq0Ts1zzNGyT6eAaJDSflTWjwkrdrONLYhUbtyZV_NWFoRGsXnxIUzRigv2hR7ACMt0ejf4xO96P3uue_2JaJu9FmIrpBdMWZCyrdErhOj7fSNrWjCOg3vwHaSxzAF3JkrMMreSOzH-1VRAEegfjw-ZEVT59WQRhintDYBR65kPWXb-AHdnJ0jgcZw5-OMJ_yfDpccXPCBJIlubEiFHLK9j-HxJ6IL4vNmd6dL7Npeg2xfXweWtUV2dhMVWoIx9QYKjXT9njt_A3PYLL7jIEfdyp7hUQT1TtNbd6TmUqF7uhyw64sVDfUBUf-YRFOdbrglBwkel]--></g></svg>